<?xml version="1.0" encoding="UTF-8"?>
<svg version="1.1" viewBox="0 0 132 99" xml:space="preserve" xmlns="http://www.w3.org/2000/svg" xmlns:cc="http://creativecommons.org/ns#" xmlns:dc="http://purl.org/dc/elements/1.1/" xmlns:rdf="http://www.w3.org/1999/02/22-rdf-syntax-ns#"><metadata><rdf:RDF><cc:Work rdf:about=""><dc:format>image/svg+xml</dc:format><dc:type rdf:resource="http://purl.org/dc/dcmitype/StillImage"/><dc:title/></cc:Work></rdf:RDF></metadata><rect width="100%" height="100%" fill="#fff"/><defs><clipPath id="a"><path d="M 0,696.038 H 696.02 V 0 H 0 Z"/></clipPath></defs><g transform="matrix(1.3333 0 0 -1.3333 0 99)"><g transform="matrix(.17789 0 0 .17789 -13.291 -24.456)"><g clip-path="url(#a)"><g transform="translate(521.58 271.09)"><path d="m0 0c0 26.934-17.236 38.779-44.158 38.779h-183.68c-2.187 0-4.188 1.156-5.295 3.045-1.096 1.894-1.104 4.208-0.014 6.111l65.878 115.47c1.376 2.408 4.197 3.595 6.879 2.883 2.682-0.711 4.553-3.145 4.553-5.916v-105.82h84.011v146.86c0 38.775-24.766 65.7-64.626 65.7-27.463 0-46.315-6.462-61.929-30.697l-128.17-198.18c-6.453-9.693-16.695-25.851-16.695-42.548 0-14.538 10.775-34.464 43.617-34.464h71.305c0.208 0.018 0.417 0.069 0.634 0.069h186.71c25.096 0.912 40.98 12.861 40.98 38.701" fill="#fe7e03"/></g><g transform="translate(365.74 195.71)"><path d="m0 0c0-30.701 16.161-47.394 42.009-47.394 25.847 0 42.002 16.693 42.002 48.467v19.83h-84.011z" fill="#fe7e03"/></g><g transform="translate(268.42 251.13)"><path d="m0 0c-2.542 1.072-4.468 2.481-5.778 4.229-1.311 1.748-2.005 3.654-2.085 5.719 0 0.318 0.12 0.605 0.358 0.864 0.237 0.257 0.536 0.387 0.894 0.387h5.42c0.436 0 0.795-0.099 1.073-0.298 0.277-0.199 0.536-0.476 0.774-0.834 0.396-1.35 1.3-2.482 2.709-3.395 1.41-0.914 3.347-1.37 5.809-1.37 2.78 0 4.874 0.467 6.284 1.4 1.41 0.932 2.115 2.213 2.115 3.842 0 1.072-0.358 1.966-1.072 2.681-0.715 0.714-1.798 1.339-3.246 1.876-1.45 0.537-3.605 1.181-6.464 1.936-4.687 1.111-8.122 2.581-10.305 4.408-2.185 1.826-3.277 4.448-3.277 7.863 0 2.302 0.636 4.358 1.906 6.166 1.271 1.806 3.088 3.225 5.451 4.259 2.363 1.033 5.114 1.548 8.251 1.548 3.295 0 6.145-0.576 8.547-1.727 2.404-1.153 4.231-2.591 5.481-4.319 1.251-1.727 1.915-3.445 1.995-5.153 0-0.318-0.118-0.605-0.357-0.863-0.238-0.259-0.536-0.387-0.893-0.387h-5.659c-0.874 0-1.47 0.356-1.788 1.072-0.199 1.271-0.973 2.332-2.322 3.187-1.352 0.853-3.019 1.281-5.004 1.281-2.185 0-3.903-0.417-5.154-1.252-1.25-0.834-1.876-2.046-1.876-3.633 0-1.072 0.317-1.966 0.953-2.681 0.635-0.714 1.629-1.34 2.979-1.876 1.349-0.536 3.316-1.142 5.897-1.818 3.534-0.794 6.345-1.687 8.43-2.679 2.085-0.994 3.623-2.245 4.616-3.753 0.992-1.51 1.488-3.436 1.488-5.779 0-2.582-0.705-4.816-2.114-6.701-1.409-1.887-3.395-3.327-5.957-4.319-2.561-0.992-5.53-1.489-8.905-1.489-3.574 0-6.633 0.537-9.174 1.608" fill="#fff"/></g><g transform="translate(310.47 250.54)"><path d="m0 0c-0.278 0.277-0.416 0.615-0.416 1.013v32.822h-11.021c-0.398 0-0.735 0.14-1.012 0.417-0.279 0.277-0.418 0.636-0.418 1.073v4.468c0 0.436 0.129 0.793 0.388 1.072 0.257 0.277 0.604 0.416 1.042 0.416h30.44c0.436 0 0.793-0.139 1.071-0.416 0.279-0.279 0.418-0.636 0.418-1.072v-4.468c0-0.437-0.139-0.796-0.418-1.073-0.278-0.277-0.635-0.417-1.071-0.417h-10.96v-32.822c0-0.398-0.13-0.736-0.388-1.013-0.259-0.278-0.606-0.417-1.043-0.417h-5.599c-0.397 0-0.736 0.139-1.013 0.417" fill="#fff"/></g><g transform="translate(358.6 258.82)"><path d="m0 0c1.549 1.588 2.383 4.03 2.501 7.327 0.08 2.383 0.12 3.991 0.12 4.824 0 0.914-0.04 2.523-0.12 4.827-0.118 3.254-0.973 5.688-2.561 7.296-1.588 1.609-3.673 2.413-6.254 2.413-2.622 0-4.727-0.804-6.315-2.413-1.589-1.608-2.423-4.042-2.503-7.296-0.039-1.153-0.058-2.761-0.058-4.827 0-2.024 0.019-3.632 0.058-4.824 0.08-3.257 0.903-5.688 2.473-7.298 1.568-1.608 3.683-2.412 6.345-2.412 2.659 0 4.765 0.794 6.314 2.383m-19.002-5.183c-3.019 2.741-4.608 6.811-4.768 12.212-0.04 1.152-0.058 2.838-0.058 5.064 0 2.263 0.018 3.97 0.058 5.123 0.16 5.28 1.789 9.331 4.886 12.151 3.098 2.82 7.287 4.23 12.57 4.23 5.242 0 9.42-1.41 12.539-4.23 3.117-2.82 4.755-6.871 4.914-12.151 0.079-2.304 0.12-4.012 0.12-5.123 0-1.072-0.041-2.761-0.12-5.064-0.159-5.401-1.757-9.471-4.796-12.212-3.037-2.74-7.258-4.11-12.657-4.11-5.443 0-9.671 1.37-12.688 4.11" fill="#fff"/></g><g transform="translate(394.28 272.64)"><path d="m0 0c2.383 0 4.17 0.525 5.361 1.578 1.192 1.053 1.787 2.592 1.787 4.616 0 2.027-0.595 3.584-1.787 4.677-1.191 1.092-2.978 1.638-5.361 1.638h-8.279v-12.509zm-16.263-22.101c-0.278 0.278-0.416 0.616-0.416 1.013v38.78c0 0.436 0.128 0.793 0.388 1.073 0.258 0.276 0.604 0.416 1.042 0.416h15.429c4.883 0 8.705-1.132 11.466-3.396 2.759-2.263 4.14-5.48 4.14-9.649 0-2.9-0.696-5.332-2.085-7.298-1.39-1.966-3.336-3.386-5.838-4.259l8.638-15.19c0.119-0.239 0.178-0.457 0.178-0.655 0-0.358-0.129-0.655-0.387-0.894-0.258-0.238-0.546-0.358-0.862-0.358h-5.482c-0.635 0-1.131 0.15-1.489 0.447-0.357 0.299-0.676 0.685-0.952 1.162l-7.625 14.118h-8.161v-14.297c0-0.397-0.141-0.735-0.417-1.013-0.28-0.278-0.636-0.417-1.073-0.417h-5.48c-0.397 0-0.735 0.139-1.014 0.417" fill="#fff"/></g><g transform="translate(427.58 250.54)"><path d="m0 0c-0.278 0.277-0.417 0.615-0.417 1.013v13.403l-14.117 24.959c-0.12 0.357-0.18 0.575-0.18 0.655 0 0.358 0.129 0.656 0.388 0.894 0.258 0.238 0.546 0.357 0.864 0.357h5.36c0.754 0 1.371-0.378 1.847-1.132l10.008-17.274 10.066 17.274c0.16 0.279 0.388 0.537 0.686 0.775 0.299 0.238 0.665 0.357 1.102 0.357h5.362c0.357 0 0.655-0.119 0.893-0.357 0.239-0.238 0.357-0.536 0.357-0.894 0-0.237-0.059-0.457-0.178-0.655l-14.059-24.959v-13.403c0-0.438-0.139-0.784-0.417-1.042-0.278-0.26-0.635-0.388-1.071-0.388h-5.481c-0.398 0-0.736 0.139-1.013 0.417" fill="#fff"/></g></g></g></g></svg>
